#!OML:ASF F:\VICON\USERDATA\INSTALL\Justin_Nancy\Justin_Nancy.ASF
:FULLY-SPECIFIED
:DEGREES
237
root -2.02113 17.2974 3.18085 5.49547 34.9161 5.23345
lowerback 5.67503 -1.40748 -5.66993
upperback -0.139534 -2.19166 1.86378
thorax -3.04487 -0.989855 5.30392
lowerneck -15.0854 -2.74914 -8.59147
upperneck 23.3556 -2.36069 3.29372
head 10.0882 -1.43433 2.30171
rclavicle -1.11021e-013 5.56597e-015
rhumerus -37.7226 -20.2209 -73.8811
rradius 29.8257
rwrist 6.91692
rhand -14.2794 12.6006
rfingers 7.12502
rthumb 11.8597 -17.0436
lclavicle -1.11021e-013 5.56597e-015
lhumerus -26.663 2.18927 86.3874
lradius 33.9294
lwrist -5.75286
lhand -16.2714 28.3138
lfingers 7.12502
lthumb 9.93833 58.0592
rfemur -31.3287 1.85039 14.572
rtibia 21.795
rfoot -4.58996 -7.43038
rtoes -0.634301
lfemur -0.0720402 1.97388 -31.8878
ltibia 21.4387
lfoot -17.8397 -3.58573
ltoes 8.81415
238
root -1.93598 17.3048 3.31897 5.60153 35.0475 5.43246
lowerback 5.59546 -1.48069 -5.82284
upperback -0.102311 -2.29647 1.79613
thorax -2.94451 -1.04483 5.32297
lowerneck -15.0126 -2.71168 -8.60375
upperneck 23.2992 -2.37173 3.52606
head 10.0561 -1.41356 2.38477
rclavicle 9.16397e-014 -3.89618e-014
rhumerus -37.7107 -20.3045 -73.9319
rradius 29.7256
rwrist 6.93253
rhand -13.8731 12.1067
rfingers 7.12502
rthumb 12.2515 -17.5144
lclavicle 9.16397e-014 -3.89618e-014
lhumerus -26.3761 2.23872 86.2455
lradius 33.9512
lwrist -6.03056
lhand -15.9845 27.7701
lfingers 7.12502
lthumb 10.2151 57.5021
rfemur -30.855 2.28925 14.3208
rtibia 19.5377
rfoot -5.01888 -7.46906
rtoes -2.78475
lfemur 1.05308 2.2091 -31.999
ltibia 20.3805
lfoot -17.5702 -3.67935
ltoes 8.65547
239
root -1.84906 17.3071 3.4552 5.70627 35.3358 5.71531
lowerback 5.64044 -1.56743 -5.94271
upperback -0.0990853 -2.42543 1.70645
thorax -2.94824 -1.10786 5.30752
lowerneck -14.9506 -2.72631 -8.80815
upperneck 23.2446 -2.39893 3.73874
head 10.0319 -1.41944 2.49067
rclavicle 3.37934e-014 -1.11319e-014
rhumerus -37.8623 -20.351 -73.9529
rradius 29.499
rwrist 7.07078
rhand -14.369 12.3974
rfingers 7.12502
rthumb 11.7733 -17.2517
lclavicle 3.37934e-014 -1.11319e-014
lhumerus -26.138 2.56817 85.9612
lradius 33.6585
lwrist -6.11122
lhand -16.0415 25.773
lfingers 7.12502
lthumb 10.1601 55.5076
rfemur -30.347 2.08002 14.1731
rtibia 17.5691
rfoot -5.46471 -6.84534
rtoes -5.32851
lfemur 2.35665 2.29054 -32.127
ltibia 19.293
lfoot -17.3826 -3.93797
ltoes 8.49423
240
root -1.76911 17.3086 3.59314 5.70002 35.5053 5.79099
lowerback 5.66848 -1.62679 -6.03837
upperback -0.0697921 -2.51215 1.6974
thorax -2.91829 -1.15158 5.35862
lowerneck -15.0523 -2.71249 -8.77714
upperneck 23.2813 -2.36239 3.67644
head 10.0608 -1.40688 2.46813
rclavicle -8.44835e-015 4.77083e-015
rhumerus -37.9155 -20.3529 -74.0255
rradius 29.1873
rwrist 7.20161
rhand -14.7108 12.7613
rfingers 7.12502
rthumb 11.4437 -16.9064
lclavicle -8.44835e-015 4.77083e-015
lhumerus -26.0807 2.10884 86.0934
lradius 34.182
lwrist -5.97414
lhand -16.5519 28.7858
lfingers 7.12502
lthumb 9.66773 58.5439
rfemur -29.9575 2.69546 13.9232
rtibia 15.8608
rfoot -5.88831 -6.82798
rtoes -5.9538
lfemur 3.53565 1.96981 -32.1328
ltibia 18.4037
lfoot -17.0586 -3.85281
ltoes 8.04937
241
root -1.69181 17.3042 3.73779 5.77053 35.6881 5.8031
lowerback 5.38299 -1.67314 -6.28221
upperback 0.0594558 -2.56587 1.80551
thorax -2.60076 -1.19002 5.59803
lowerneck -15.0923 -2.67532 -8.51583
upperneck 23.0954 -2.30045 3.38476
head 9.99066 -1.38605 2.32629
rclavicle 4.37326e-015 1.03368e-014
rhumerus -37.7825 -20.4443 -73.9633
rradius 29.1975
rwrist 7.74256
rhand -14.4081 12.4712
rfingers 7.12502
rthumb 11.7355 -17.1801
lclavicle 4.37326e-015 1.03368e-014
lhumerus -25.6397 2.32216 86.1043
lradius 34.0603
lwrist -6.11039
lhand -16.7001 28.3253
lfingers 7.12502
lthumb 9.5247 58.09
rfemur -29.6015 3.16837 13.8735
rtibia 14.3842
rfoot -6.15923 -6.90372
rtoes -6.08408
lfemur 4.39043 1.70806 -32.0384
ltibia 17.8804
lfoot -16.9019 -3.89742
ltoes 7.08834
242
root -1.61697 17.3006 3.87621 5.76663 35.9804 5.70895
lowerback 5.28152 -1.75282 -6.35925
upperback 0.115439 -2.66627 1.90896
thorax -2.46287 -1.24567 5.75053
lowerneck -15.0808 -2.67732 -8.43124
upperneck 22.9176 -2.28845 3.23436
head 9.92164 -1.38805 2.25832
rclavicle 2.01766e-014 1.27222e-014
rhumerus -37.8218 -20.6955 -73.8094
rradius 29.4481
rwrist 7.99322
rhand -13.7634 12.2924
rfingers 7.12502
rthumb 12.3573 -17.3224
lclavicle 2.01766e-014 1.27222e-014
lhumerus -25.3743 2.21751 86.2116
lradius 34.1891
lwrist -5.96588
lhand -16.712 29.5438
lfingers 7.12502
lthumb 9.51319 59.3091
rfemur -29.1634 3.01599 14.2064
rtibia 13.2086
rfoot -6.23941 -6.7234
rtoes -7.37363
lfemur 5.18203 0.958761 -31.8158
ltibia 17.7177
lfoot -16.7181 -4.19891
ltoes 8.99423
243
root -1.54056 17.2985 4.00514 5.89649 36.1846 5.78597
lowerback 5.3691 -1.82353 -6.42656
upperback 0.0264852 -2.7724 1.91229
thorax -2.58599 -1.2906 5.80529
lowerneck -15.2664 -2.75079 -8.58049
upperneck 23.1109 -2.32974 3.21295
head 10.0319 -1.42432 2.27127
rclavicle 1.03169e-013 -5.56597e-015
rhumerus -37.9037 -20.5743 -73.8301
rradius 29.4599
rwrist 7.33653
rhand -13.7757 12.4785
rfingers 7.12502
rthumb 12.3453 -17.137
lclavicle 1.03169e-013 -5.56597e-015
lhumerus -25.4836 1.62957 86.3322
lradius 34.6861
lwrist -5.19762
lhand -17.0184 30.9701
lfingers 7.12502
lthumb 9.21754 60.7487
rfemur -28.9318 2.44838 14.5504
rtibia 12.4934
rfoot -6.19228 -6.05727
rtoes -8.84795
lfemur 5.84048 -0.340404 -31.8356
ltibia 17.8489
lfoot -16.5125 -4.55278
ltoes 14.1289
244
root -1.46689 17.2907 4.14004 6.03905 36.2529 5.91096
lowerback 5.36091 -1.83585 -6.59509
upperback -0.0192434 -2.80136 1.86987
thorax -2.61912 -1.30058 5.85908
lowerneck -15.3909 -2.80001 -8.57774
upperneck 23.3737 -2.37713 3.17339
head 10.1533 -1.4534 2.25268
rclavicle 9.93923e-017 -6.36111e-015
rhumerus -37.7505 -20.3703 -74.0208
rradius 29.0973
rwrist 7.14429
rhand -14.4556 12.813
rfingers 7.12502
rthumb 11.6898 -16.8409
lclavicle 9.93923e-017 -6.36111e-015
lhumerus -25.5512 1.43748 86.1534
lradius 34.8271
lwrist -4.8999
lhand -17.2645 29.6176
lfingers 7.12502
lthumb 8.98009 59.4064
rfemur -28.8754 2.08781 14.8441
rtibia 12.3384
rfoot -6.01848 -5.35929
rtoes -9.19156
lfemur 6.30833 -1.24624 -31.9354
ltibia 18.0921
lfoot -16.4087 -4.55753
ltoes 16.8237
245
root -1.39503 17.2818 4.28704 5.83917 36.3224 5.56506
lowerback 5.29159 -1.82055 -6.5131
upperback -0.00458389 -2.76815 1.96979
thorax -2.56864 -1.28706 5.91203
lowerneck -15.4271 -2.83186 -8.68824
upperneck 23.486 -2.42543 3.31565
head 10.2072 -1.4702 2.31655
rclavicle -7.12643e-014 7.95139e-015
rhumerus -37.623 -20.457 -74.0083
rradius 29.0049
rwrist 6.68463
rhand -13.6729 12.4506
rfingers 7.12502
rthumb 12.4445 -17.159
lclavicle -7.12643e-014 7.95139e-015
lhumerus -25.2731 1.8902 85.9377
lradius 34.3602
lwrist -5.49112
lhand -17.2632 27.9712
lfingers 7.12502
lthumb 8.98138 57.7601
rfemur -29.0018 2.03433 15.5112
rtibia 12.9888
rfoot -5.90091 -4.7416
rtoes -9.07594
lfemur 6.76363 -1.37856 -31.5314
ltibia 18.2174
lfoot -16.2285 -4.55042
ltoes 15.8984
246
root -1.31244 17.2723 4.4354 5.77689 36.4688 5.52351
lowerback 5.19984 -1.8696 -6.60287
upperback 0.0236563 -2.83041 2.04578
thorax -2.47033 -1.32158 6.04152
lowerneck -15.6046 -2.79712 -8.84594
upperneck 23.6289 -2.33798 3.3961
head 10.2906 -1.43569 2.38443
rclavicle 5.66536e-014 -8.74653e-015
rhumerus -37.7638 -20.534 -73.9313
rradius 28.885
rwrist 7.22101
rhand -13.8682 12.647
rfingers 7.12502
rthumb 12.2562 -16.9738
lclavicle 5.66536e-014 -8.74653e-015
lhumerus -24.8419 2.64819 85.9518
lradius 33.7909
lwrist -6.12484
lhand -16.7909 27.6786
lfingers 7.12502
lthumb 9.43708 57.4473
rfemur -29.1693 1.93324 15.8206
rtibia 14.1127
rfoot -5.94194 -4.02527
rtoes -7.92859
lfemur 7.3114 -1.6604 -31.3768
ltibia 18.4563
lfoot -15.966 -5.07273
ltoes 16.9361
247
root -1.22533 17.2624 4.57634 5.91305 36.5884 5.77549
lowerback 5.19174 -1.88417 -6.71818
upperback -0.0120931 -2.85998 1.9489
thorax -2.49805 -1.33325 6.00736
lowerneck -15.7621 -2.84234 -8.87556
upperneck 23.9126 -2.40635 3.50283
head 10.4302 -1.46027 2.42132
rclavicle -9.30312e-014 2.70347e-014
rhumerus -38.0705 -20.736 -73.8755
rradius 28.5941
rwrist 7.97846
rhand -14.8565 13.4284
rfingers 7.12502
rthumb 11.3032 -16.247
lclavicle -9.30312e-014 2.70347e-014
lhumerus -24.7374 2.77412 86.0057
lradius 33.7368
lwrist -5.86705
lhand -16.6017 28.3086
lfingers 7.12502
lthumb 9.61965 58.0689
rfemur -29.25 1.51207 15.9723
rtibia 15.1821
rfoot -5.76082 -3.0931
rtoes -4.36395
lfemur 7.85144 -2.58427 -31.5396
ltibia 18.891
lfoot -15.4558 -5.86188
ltoes 22.1642
248
root -1.14301 17.2474 4.72276 5.79838 36.7212 5.66986
lowerback 5.29696 -1.92902 -6.60928
upperback -0.078337 -2.92095 1.9765
thorax -2.62074 -1.35801 5.98531
lowerneck -15.7866 -2.87807 -9.04804
upperneck 24.1172 -2.43719 3.61777
head 10.5164 -1.47925 2.49011
rclavicle 3.08116e-015 1.03368e-014
rhumerus -38.2841 -20.6386 -73.8306
rradius 28.4825
rwrist 8.1268
rhand -15.0924 13.4551
rfingers 7.12502
rthumb 11.0756 -16.2326
lclavicle 3.08116e-015 1.03368e-014
lhumerus -24.8677 2.85782 86.0171
lradius 33.8183
lwrist -5.47691
lhand -16.8925 28.8637
lfingers 7.12502
lthumb 9.33904 58.6368
rfemur -29.3265 1.19902 16.461
rtibia 16.4486
rfoot -5.70066 -2.33898
rtoes -2.24487
lfemur 7.50735 -0.436185 -31.2781
ltibia 19.341
lfoot -15.6835 -4.85945
ltoes 0.779805
249
root -1.06202 17.2349 4.87391 5.72789 36.9512 5.60291
lowerback 5.33188 -2.00678 -6.66355
upperback -0.149316 -3.03064 2.03184
thorax -2.6921 -1.40689 6.085
lowerneck -15.735 -2.8231 -8.8505
upperneck 24.2504 -2.32835 3.28352
head 10.5417 -1.45288 2.35346
rclavicle 2.87244e-014 -2.3059e-014
rhumerus -38.4522 -20.5805 -73.7257
rradius 28.6049
rwrist 7.8649
rhand -14.5473 12.7729
rfingers 7.12502
rthumb 11.6013 -16.886
lclavicle 2.87244e-014 -2.3059e-014
lhumerus -25.0625 3.04715 86.0057
lradius 33.9873
lwrist -5.40494
lhand -16.8292 30.0543
lfingers 7.12502
lthumb 9.40019 59.8246
rfemur -29.3734 1.6178 16.5884
rtibia 17.7483
rfoot -6.55874 -1.98738
rtoes -7.94766
lfemur 7.83429 -0.865376 -31.1079
ltibia 19.8893
lfoot -15.4182 -5.63727
ltoes 0.267637
250
root -0.970953 17.2352 5.03188 5.60591 37.4214 5.56707
lowerback 5.24241 -2.13571 -6.54804
upperback -0.169877 -3.19155 1.98429
thorax -2.6474 -1.4904 5.9746
lowerneck -15.5355 -2.76475 -8.73059
upperneck 24.3837 -2.29233 3.26968
head 10.5469 -1.42944 2.33632
rclavicle 6.20705e-014 1.82882e-014
rhumerus -38.7702 -20.9192 -73.5536
rradius 28.6982
rwrist 8.01802
rhand -14.6499 13.023
rfingers 7.12502
rthumb 11.5024 -16.6414
lclavicle 6.20705e-014 1.82882e-014
lhumerus -25.3274 2.83629 86.0466
lradius 34.3481
lwrist -5.2448
lhand -16.4087 32.8258
lfingers 7.12502
lthumb 9.80583 62.5775
rfemur -28.9059 1.43077 16.8829
rtibia 18.5872
rfoot -6.12709 -2.11642
rtoes 1.17319
lfemur 8.09496 -1.22291 -30.9146
ltibia 20.8574
lfoot -15.2656 -6.09176
ltoes -1.40452
251
root -0.878451 17.2387 5.1922 5.60838 37.9234 5.69934
lowerback 5.04384 -2.30041 -6.63873
upperback -0.138473 -3.4029 1.99745
thorax -2.46545 -1.60328 6.03945
lowerneck -15.4987 -2.76101 -8.97495
upperneck 24.4527 -2.27256 3.45417
head 10.5696 -1.42215 2.44791
rclavicle -1.59028e-014 2.38542e-015
rhumerus -38.8152 -21.1598 -73.3106
rradius 28.4253
rwrist 8.49249
rhand -15.0082 13.9664
rfingers 7.12502
rthumb 11.1569 -15.717
lclavicle -1.59028e-014 2.38542e-015
lhumerus -25.4037 4.59079 85.2962
lradius 33.135
lwrist -6.48023
lhand -16.0284 23.9864
lfingers 7.12502
lthumb 10.1728 53.7204
rfemur -28.233 1.23947 16.9984
rtibia 19.1438
rfoot -6.27989 -1.80363
rtoes 2.62337
lfemur 8.29106 -1.51146 -30.8448
ltibia 21.8214
lfoot -14.7365 -5.59667
ltoes -4.59842
